<?xml version="1.0" standalone="no"?>
<!DOCTYPE svg PUBLIC "-//W3C//DTD SVG 1.1//EN" "http://www.w3.org/Graphics/SVG/1.1/DTD/svg11.dtd">
<svg xmlns="http://www.w3.org/2000/svg">
<defs >
<font id="DMSans" horiz-adv-x="529" ><font-face
    font-family="DM Sans 9pt Light"
    units-per-em="1000"
    panose-1="0 0 0 0 0 0 0 0 0 0"
    ascent="992"
    descent="-310"
    alphabetic="0" />
<glyph unicode=" " horiz-adv-x="275" />
<glyph unicode="!" horiz-adv-x="237" d="M89 190L81 700H157L148 190H89ZM118 -5Q96 -5 82 10T68 47Q68 69 82 83T118 98Q140 98 154 84T169 47Q169 25 155 10T118 -5Z" />
<glyph unicode="&quot;" horiz-adv-x="272" d="M175 555L164 755H233L224 555H175ZM49 555L38 755H108L98 555H49Z" />
<glyph unicode="#" horiz-adv-x="792" d="M432 0L579 700H645L498 0H432ZM147 0L293 700H360L213 0H147ZM51 204V266H702V204H51ZM89 434V496H741V434H89Z" />
<glyph unicode="$" horiz-adv-x="576" d="M254 -87V791H321V-87H254ZM296 -12Q219 -12 163 16T76 94T46 210H119Q119 166 139 129T198 70T296 47Q348 47 383 64T438 111T457 177Q457 221 439 248T388 292T316 321T230 349Q149 377 111 418T72 523Q72 578 97 620T172
687T288 712Q353 712 401 688T477 620T504 520H432Q432 552 416 582T367 632T284 652Q243 652 212 638T162 596T144 531Q144 495 160 472T205 434T273 407T360 378Q409 361 447 337T507 276T529 181Q529 132 504 88T426 16T296 -12Z" />
<glyph unicode="%" horiz-adv-x="757" d="M134 0L545 700H615L205 0H134ZM559 -12Q515 -12 480 8T424 65T403 153Q403 204 423 241T480 298T559 318Q604 318 639 298T694 241T714 153Q714 103 694 66T638 8T559 -12ZM559 45Q584 45 605 57T639 93T653 153Q653
190 640 214T606 250T559 262Q535 262 513 250T478 214T464 153Q464 117 477 93T512 57T559 45ZM198 381Q154 381 119 401T63 458T42 546Q42 597 63 634T119 691T199 711Q243 711 278 691T333 634T354 546Q354 496 334 459T278 401T198 381ZM198 438Q223 438 244
450T278 486T292 546Q292 583 279 607T245 643T199 656Q174 656 153 644T118 607T104 546Q104 510 117 486T152 450T198 438Z" />
<glyph unicode="&amp;" horiz-adv-x="722" d="M605 0L223 391Q178 438 158 475T138 560Q138 604 159 638T219 692T313 712Q365 712 404 693T465 638T486 556H416Q416 604 385 629T313 654Q263 654 235 628T207 561Q207 527 225 495T280 424L696 0H605ZM276 -12Q207
-12 154 14T72 88T43 200Q43 252 63 294T124 368T223 421L250 430L289 383L254 371Q183 345 148 303T113 202Q113 158 134 124T192 69T278 49Q339 49 387 77T487 171Q507 198 528 231T573 304L607 362H682L635 278Q608 231 583 193T533 124Q474 51 414 20T276 -12Z"
/>
<glyph unicode="&apos;" horiz-adv-x="150" d="M51 555L38 755H111L100 555H51Z" />
<glyph unicode="(" horiz-adv-x="366" d="M252 -145Q198 -94 152 -24T77 137T49 333Q49 440 77 529T151 689T252 811H324V804Q263 745 217 672T145 513T119 333Q119 239 145 154T218 -5T325 -138V-145H252Z" />
<glyph unicode=")" horiz-adv-x="366" d="M114 -145H41V-138Q102 -79 148 -6T220 153T246 333Q246 427 221 512T149 671T41 804V811H114Q168 761 214 690T289 529T317 333Q317 227 289 138T215 -23T114 -145Z" />
<glyph unicode="*" horiz-adv-x="472" d="M208 360L219 517L90 430L60 483L202 547L61 610L90 662L220 575L208 732H267L254 575L383 662L411 611L270 547L412 483L383 431L254 517L266 360H208Z" />
<glyph unicode="+" horiz-adv-x="500" d="M217 75V505H282V75H217ZM25 261V321H474V261H25Z" />
<glyph unicode="," horiz-adv-x="167" d="M1 -123L60 89H135L51 -123H1Z" />
<glyph unicode="-" horiz-adv-x="489" d="M306 264V324H695V264H306Z" />
<glyph unicode="." horiz-adv-x="188" d="M94 -5Q72 -5 58 10T43 47Q43 69 57 83T94 98Q116 98 130 84T145 47Q145 25 131 10T94 -5Z" />
<glyph unicode="/" horiz-adv-x="383" d="M31 -90L282 760H352L100 -90H31Z" />
<glyph unicode="0" horiz-adv-x="680" d="M341 -12Q249 -12 184 33T84 160T49 350Q49 458 84 539T184 666T340 712Q431 712 496 667T596 540T631 350Q631 242 596 161T496 34T341 -12ZM340 49Q403 49 452 85T530 188T559 350Q559 444 531 511T453 614T340 650Q278
650 228 614T150 511T121 350Q121 256 149 189T228 85T340 49Z" />
<glyph unicode="1" horiz-adv-x="302" d="M153 0V623L34 591V640L175 700H224V0H153Z" />
<glyph unicode="2" horiz-adv-x="578" d="M69 0V49Q142 107 207 165T322 282T402 395T431 504Q431 542 418 576T374 631T291 652Q241 652 208 630T159 573T143 495H75Q75 562 103 610T179 685T292 712Q351 712 398 690T473 622T501 505Q501 455 480 405T423 306T345
214T258 130T175 59H527V0H69Z" />
<glyph unicode="3" horiz-adv-x="587" d="M293 -12Q226 -12 173 12T88 85T54 205H125Q126 163 146 128T203 72T293 50Q346 50 381 70T434 124T453 200Q453 253 428 285T360 333T269 349H217V409H269Q343 409 383 442T424 535Q424 584 392 617T293 650Q231 650
194 615T151 523H79Q82 578 109 620T183 687T294 712Q360 712 405 689T473 626T496 539Q496 505 484 473T446 417T377 382Q419 373 452 350T505 290T525 201Q525 144 499 96T421 18T293 -12Z" />
<glyph unicode="4" horiz-adv-x="596" d="M393 0V157H36V210L380 700H462V218H569V157H462V0H393ZM114 218H396V622V622L114 218Z" />
<glyph unicode="5" horiz-adv-x="610" d="M310 -12Q240 -12 188 13T106 83T66 183H135Q148 123 194 86T311 48Q365 48 403 73T461 140T482 234Q482 288 461 330T403 395T315 419Q254 419 211 393T146 323H79L138 700H501V639H192L151 408Q176 439 219 459T320
479Q370 479 412 461T484 410T532 333T549 235Q549 186 534 142T488 63T413 8T310 -12Z" />
<glyph unicode="6" horiz-adv-x="629" d="M324 -12Q250 -12 199 16T117 92T72 199T58 321Q58 437 89 525T181 662T325 712Q389 712 435 687T509 620T543 525H478Q468 585 428 617T325 650Q269 650 225 616T154 511T123 332Q123 330 123 327T123 321Q139 355 168
383T239 429T333 447Q393 447 445 419T530 341T563 222Q563 165 535 111T454 23T324 -12ZM320 50Q369 50 408 72T469 132T492 218Q492 269 470 306T408 364T320 385Q271 385 232 363T169 302T146 217Q146 169 168 132T231 72T320 50Z" />
<glyph unicode="7" horiz-adv-x="536" d="M147 0L424 640H28V700H496V646L222 0H147Z" />
<glyph unicode="8" horiz-adv-x="605" d="M302 -12Q235 -12 181 13T97 84T66 188Q66 231 83 269T133 334T207 372Q147 391 116 434T85 527Q85 578 111 620T186 687T302 712Q371 712 419 687T494 620T520 527Q520 477 489 434T398 372Q441 362 472 335T521 269T539
188Q539 129 508 84T424 14T302 -12ZM302 51Q385 51 426 89T468 192Q468 265 423 301T302 337Q227 337 182 301T137 192Q137 128 178 90T302 51ZM302 399Q369 399 408 433T448 524Q448 587 409 618T302 650Q235 650 196 619T157 524Q157 468 196 434T302 399Z"
/>
<glyph unicode="9" horiz-adv-x="630" d="M304 -12Q240 -12 194 13T121 80T86 175H151Q162 115 202 83T305 50Q361 50 405 84T475 188T506 366Q506 369 506 372T506 379Q491 346 462 317T391 271T297 253Q237 253 185 281T99 360T66 478Q66 536 94 589T176 677T305
712Q380 712 431 684T513 608T558 501T572 379Q572 264 540 176T449 38T304 -12ZM310 315Q359 315 398 338T461 399T484 483Q484 532 461 569T399 628T310 650Q260 650 221 628T160 569T138 482Q138 432 160 394T222 336T310 315Z" />
<glyph unicode=":" horiz-adv-x="190" d="M94 -5Q72 -5 58 10T43 47Q43 69 57 83T94 98Q116 98 130 84T145 47Q145 25 131 10T94 -5ZM94 413Q72 413 58 428T43 465Q43 487 57 501T94 516Q116 516 130 502T145 465Q145 443 131 428T94 413Z" />
<glyph unicode=";" horiz-adv-x="216" d="M120 413Q98 413 84 428T69 465Q69 487 83 501T120 516Q142 516 156 502T171 465Q171 443 157 428T120 413ZM25 -123L84 89H159L75 -123H25Z" />
<glyph unicode="&lt;" horiz-adv-x="500" d="M420 40H331L80 272V272L331 504H420L168 272L420 40Z" />
<glyph unicode="=" horiz-adv-x="500" d="M55 363V423H445V363H55ZM55 160V219H445V160H55Z" />
<glyph unicode="&gt;" horiz-adv-x="500" d="M80 40L332 272L80 504H169L420 272V272L169 40H80Z" />
<glyph unicode="?" horiz-adv-x="522" d="M164 194L160 349H186Q229 349 269 355T340 377T389 425T408 508Q408 553 389 585T335 634T255 652Q210 652 176 635T123 588T104 514H37Q37 575 65 619T143 687T256 712Q319 712 368 687T446 616T475 508Q475 433 443
387T355 320T227 299L224 194H164ZM193 -5Q171 -5 157 10T142 47Q142 69 156 83T192 98Q215 98 229 84T244 47Q244 25 230 10T193 -5Z" />
<glyph unicode="@" horiz-adv-x="996" d="M427 -195Q324 -195 245 -154T122 -37T77 141Q77 245 112 335T211 493T364 598T560 636Q669 636 749 594T874 477T919 303Q919 245 906 191T866 92T802 21T715 -6Q658 -6 633 30T614 122L618 157L634 133Q608 69 554 32T435
-6Q360 -6 318 40T276 166Q276 221 293 271T341 360T417 423T515 446Q577 446 614 412T657 313L637 301L660 434H721L670 143Q663 99 675 71T725 43Q758 43 783 66T826 128T852 211T861 299Q861 388 823 452T716 550T551 585Q460 585 384 552T252 458T166 319T136
148Q136 55 173 -10T279 -110T442 -144Q484 -144 527 -136T607 -110L618 -159Q574 -177 526 -186T427 -195ZM455 49Q499 49 536 73T598 139T628 238Q633 280 622 315T585 370T515 391Q475 391 443 373T387 324T353 255T341 176Q341 118 370 84T455 49Z" />
<glyph unicode="A" horiz-adv-x="654" d="M33 0L291 700H363L621 0H547L327 608V608L107 0H33ZM151 189L172 247H481L502 189H151Z" />
<glyph unicode="B" horiz-adv-x="596" d="M78 0V700H313Q387 700 435 676T506 612T530 523Q530 469 507 433T446 378T367 354L380 364Q424 363 462 340T523 279T546 191Q546 139 521 96T445 26T320 0H78ZM148 59H315Q391 59 432 95T474 194Q474 257 431 294T312
332H148V59ZM148 390H311Q382 390 420 424T458 516Q458 572 421 606T308 641H148V390Z" />
<glyph unicode="C" horiz-adv-x="713" d="M378 -12Q277 -12 203 33T89 160T49 350Q49 458 89 539T203 666T378 712Q496 712 569 657T664 500H587Q571 568 519 609T378 651Q301 651 243 615T153 512T121 350Q121 256 153 189T243 85T378 49Q467 49 519 90T587 198H664Q642
99 570 44T378 -12Z" />
<glyph unicode="D" horiz-adv-x="685" d="M78 0V700H276Q400 700 479 658T597 537T636 348Q636 240 598 162T480 42T276 0H78ZM148 58H276Q382 58 445 93T536 193T564 348Q564 439 536 505T445 606T276 642H148V58Z" />
<glyph unicode="E" horiz-adv-x="562" d="M78 0V700H503V642H148V381H473V323H148V58H503V0H78Z" />
<glyph unicode="F" horiz-adv-x="532" d="M78 0V700H496V642H148V380H448V322H148V0H78Z" />
<glyph unicode="G" horiz-adv-x="755" d="M376 -12Q278 -12 204 33T90 160T49 350Q49 457 90 538T207 666T386 712Q502 712 580 656T680 500H598Q584 568 529 608T386 648Q306 648 247 612T154 510T121 350Q121 257 153 190T243 87T376 51Q494 51 553 121T621
314H410V371H693V0H629L623 124V124Q597 81 564 50T485 4T376 -12Z" />
<glyph unicode="H" horiz-adv-x="675" d="M527 0V700H597V0H527ZM78 0V700H148V0H78ZM132 327V385H547V327H132Z" />
<glyph unicode="I" horiz-adv-x="226" d="M78 0V700H148V0H78Z" />
<glyph unicode="J" horiz-adv-x="494" d="M226 -12Q165 -12 121 11T54 77T30 181H101Q102 145 113 116T152 68T226 50Q272 50 297 67T334 114T346 180V700H416V180Q416 89 366 39T226 -12Z" />
<glyph unicode="K" horiz-adv-x="568" d="M78 0V700H148V372L451 700H540L279 420L543 0H458L229 366L148 280V0H78Z" />
<glyph unicode="L" horiz-adv-x="520" d="M78 0V700H148V57H479V0H78Z" />
<glyph unicode="M" horiz-adv-x="832" d="M78 0V700H158L416 195V195L673 700H754V0H684V572V572L442 98H390L148 570V570V0H78Z" />
<glyph unicode="N" horiz-adv-x="683" d="M78 0V700H148L535 117V117V700H605V0H535L148 584V584V0H78Z" />
<glyph unicode="O" horiz-adv-x="774" d="M386 -12Q286 -12 210 33T92 160T49 350Q49 457 91 538T210 666T386 712Q489 712 565 666T683 539T725 350Q725 242 683 161T565 34T386 -12ZM387 49Q466 49 526 85T619 188T653 350Q653 444 620 511T526 614T387 650Q308
650 248 614T155 511T121 350Q121 256 154 189T248 85T387 49Z" />
<glyph unicode="P" horiz-adv-x="574" d="M78 0V700H298Q379 700 432 674T510 602T535 498Q535 441 510 395T433 323T298 296H148V0H78ZM148 355H298Q387 355 425 393T463 498Q463 566 425 603T298 641H148V355Z" />
<glyph unicode="Q" horiz-adv-x="774" d="M576 -95L341 273H430L665 -95H576ZM386 -12Q286 -12 210 33T92 160T49 350Q49 457 91 538T210 666T386 712Q489 712 565 666T683 539T725 350Q725 242 683 161T565 34T386 -12ZM387 49Q466 49 526 85T619 188T653 350Q653
444 620 511T526 614T387 650Q308 650 248 614T155 511T121 350Q121 256 154 189T248 85T387 49Z" />
<glyph unicode="R" horiz-adv-x="587" d="M78 0V700H294Q375 700 426 673T502 601T526 497Q526 441 501 395T424 321T289 293H148V0H78ZM450 0L293 315H373L534 0H450ZM148 350H289Q374 350 414 391T454 497Q454 564 415 602T288 641H148V350Z" />
<glyph unicode="S" horiz-adv-x="576" d="M296 -12Q219 -12 163 16T76 94T46 210H119Q119 166 139 129T198 70T296 47Q348 47 383 64T438 111T457 177Q457 221 439 248T388 292T316 321T230 349Q149 377 111 418T72 523Q72 578 97 620T172 687T288 712Q353 712
401 688T477 620T504 520H432Q432 552 416 582T367 632T284 652Q243 652 212 638T162 596T144 531Q144 495 160 472T205 434T273 407T360 378Q409 361 447 337T507 276T529 181Q529 132 504 88T426 16T296 -12Z" />
<glyph unicode="T" horiz-adv-x="552" d="M241 0V642H31V700H521V642H311V0H241Z" />
<glyph unicode="U" horiz-adv-x="648" d="M324 -12Q253 -12 196 16T104 103T70 255V700H140V254Q140 183 163 138T229 71T325 50Q380 50 421 71T485 137T508 254V700H578V255Q578 163 544 104T453 16T324 -12Z" />
<glyph unicode="V" horiz-adv-x="661" d="M290 0L25 700H101L330 76V76L562 700H636L370 0H290Z" />
<glyph unicode="W" horiz-adv-x="956" d="M221 0L27 700H102L262 86V86L441 700H519L693 85V85L854 700H929L732 0H653L477 597V597L298 0H221Z" />
<glyph unicode="X" horiz-adv-x="586" d="M41 0L252 352L41 700H119L296 409V409L467 700H545L332 349L544 0H466L288 293V293L119 0H41Z" />
<glyph unicode="Y" horiz-adv-x="566" d="M249 0V273L23 700H102L296 314H272L465 700H543L319 273V0H249Z" />
<glyph unicode="Z" horiz-adv-x="532" d="M44 0V56L401 638H50V700H483V644L126 62H488V0H44Z" />
<glyph unicode="[" horiz-adv-x="299" d="M78 -145V811H237V753H144V-86H237V-145H78Z" />
<glyph unicode="\" horiz-adv-x="383" d="M351 -90H282L30 760H100L351 -90Z" />
<glyph unicode="]" horiz-adv-x="299" d="M221 -145H61V-86H155V753H61V811H221V-145Z" />
<glyph unicode="^" horiz-adv-x="611" d="M40 213L274 700H337L571 213H498L306 616V616L112 213H40Z" />
<glyph unicode="_" horiz-adv-x="600" d="M50 -100V-35H550V-100H50Z" />
<glyph unicode="`" horiz-adv-x="205" d="M199 547L0 663L10 724V724L205 597L199 547Z" />
<glyph unicode="a" horiz-adv-x="531" d="M232 -12Q171 -12 131 10T71 67T51 144Q51 196 77 232T152 286T264 304H400Q400 353 385 387T342 438T269 456Q217 456 180 430T134 354H61Q67 407 97 443T173 497T269 516Q338 516 382 490T448 417T470 311V0H406L403
92V92Q393 71 378 52T342 19T294 -3T232 -12ZM240 50Q278 50 307 65T357 105T389 162T400 227V245H269Q216 245 184 232T138 197T124 146Q124 117 137 96T177 62T240 50Z" />
<glyph unicode="b" horiz-adv-x="620" d="M328 -12Q284 -12 248 1T184 38T141 92V92L135 0H71V720H141V413Q166 456 213 486T328 516Q402 516 457 482T541 388T571 252Q571 176 541 116T457 22T328 -12ZM323 49Q376 49 415 74T477 145T500 252Q500 314 478 359T415
430T323 455Q271 455 231 430T168 359T145 252Q145 190 167 145T230 74T323 49Z" />
<glyph unicode="c" horiz-adv-x="563" d="M293 -12Q224 -12 169 21T81 113T49 251Q49 332 81 390T168 482T293 516Q381 516 439 471T514 350H444Q433 400 392 427T293 455Q247 455 208 433T145 365T121 251Q121 200 135 162T173 99T228 60T293 47Q330 47 361 59T415
96T444 154H514Q499 81 440 35T293 -12Z" />
<glyph unicode="d" horiz-adv-x="620" d="M292 -12Q218 -12 164 22T79 117T49 253Q49 329 79 388T164 482T293 516Q356 516 404 489T479 411V720H549V0H485L479 91V91Q464 65 438 41T376 3T292 -12ZM297 49Q350 49 389 74T452 145T475 252Q475 313 452 359T390
430T297 455Q246 455 206 430T143 360T120 252Q120 190 143 145T206 74T297 49Z" />
<glyph unicode="e" horiz-adv-x="560" d="M287 -12Q217 -12 164 21T80 113T49 253Q49 333 79 392T163 483T289 516Q362 516 413 483T490 397T517 281Q517 271 517 261T516 236H102V295H449Q446 372 401 414T286 456Q242 456 203 436T141 376T117 276V250Q117 182
141 137T205 70T287 48Q344 48 381 73T434 144H503Q491 100 462 65T389 9T287 -12Z" />
<glyph unicode="f" horiz-adv-x="333" d="M101 0V591Q101 635 115 663T159 706T232 720H289V660H244Q204 660 188 644T171 588V0H101ZM23 444V504H302V444H23Z" />
<glyph unicode="g" horiz-adv-x="552" d="M266 -232Q199 -232 148 -214T67 -160T37 -71Q37 -50 44 -26T74 24T136 69L193 44Q140 19 124 -10T108 -64Q108 -100 128 -124T184 -160T266 -172Q312 -172 345 -159T397 -122T415 -65Q415 -28 387 -3T281 27Q220 31 181
37T116 53T74 74T42 98V121L138 212L202 189L108 105L114 132Q126 124 136 117T163 106T212 97T298 88Q367 83 408 64T468 13T487 -62Q487 -105 464 -143T392 -207T266 -232ZM265 160Q201 160 158 184T91 248T68 338Q68 388 91 428T158 492T265 516Q329 516 372
492T438 428T461 338Q461 289 439 249T373 184T265 160ZM265 220Q323 220 356 250T390 338Q390 396 357 426T265 456Q207 456 173 426T138 338Q138 281 172 251T265 220ZM347 441L322 504H526V447L347 441Z" />
<glyph unicode="h" horiz-adv-x="564" d="M71 0V720H141V414V414Q167 462 213 489T314 516Q371 516 413 493T479 423T503 303V0H434V295Q434 376 401 415T302 455Q257 455 221 433T163 370T141 267V0H71Z" />
<glyph unicode="i" horiz-adv-x="231" d="M81 0V504H151V0H81ZM116 623Q95 623 80 637T65 674Q65 697 79 710T116 724Q136 724 151 711T166 674Q166 652 152 638T116 623Z" />
<glyph unicode="j" horiz-adv-x="235" d="M-26 -220V-160H12Q51 -160 68 -144T85 -88V504H155V-91Q155 -135 141 -163T97 -206T23 -220H-26ZM121 623Q100 623 85 637T70 674Q70 697 85 710T121 724Q141 724 156 711T171 674Q171 652 157 638T121 623Z" />
<glyph unicode="k" horiz-adv-x="485" d="M376 0L129 276L355 504H442L191 253L192 300L466 0H376ZM71 0V720H141V0H71Z" />
<glyph unicode="l" horiz-adv-x="212" d="M71 0V720H141V0H71Z" />
<glyph unicode="m" horiz-adv-x="879" d="M71 0V504H135L140 428V428Q163 470 204 493T295 516Q333 516 365 505T421 472T460 415V415Q484 462 529 489T627 516Q685 516 728 493T794 423T818 304V0H748V296Q748 376 716 415T623 455Q583 455 550 434T499 372T480
271V0H410V296Q410 376 377 415T286 455Q244 455 212 434T160 371T141 268V0H71Z" />
<glyph unicode="n" horiz-adv-x="563" d="M71 0V504H135L139 414V414Q163 462 208 489T310 516Q368 516 411 493T478 424T502 305V0H432V297Q432 377 397 416T298 455Q253 455 218 434T162 371T141 270V0H71Z" />
<glyph unicode="o" horiz-adv-x="590" d="M293 -12Q224 -12 169 20T81 112T49 251Q49 333 81 392T170 483T295 516Q367 516 422 484T509 392T541 251Q541 172 509 113T421 21T293 -12ZM294 48Q341 48 380 71T444 139T469 252Q469 320 445 365T382 432T295 455Q250
455 210 432T146 365T121 252Q121 185 145 140T208 71T294 48Z" />
<glyph unicode="p" horiz-adv-x="620" d="M71 -220V504H135L141 413V413Q157 440 183 463T245 501T329 516Q402 516 456 481T541 387T571 251Q571 175 541 116T456 22T328 -12Q264 -12 216 15T141 93V-220H71ZM323 49Q375 49 415 74T477 145T500 252Q500 313 478
359T415 430T323 455Q271 455 231 430T168 360T145 252Q145 191 168 146T231 75T323 49Z" />
<glyph unicode="q" horiz-adv-x="620" d="M479 -220V91Q454 48 408 18T292 -12Q218 -12 164 22T79 116T49 252Q49 328 79 387T163 481T292 516Q336 516 372 503T436 466T479 412V412L485 504H549V-220H479ZM297 49Q350 49 389 74T452 145T475 252Q475 314 452
359T390 430T297 455Q246 455 206 430T143 359T120 252Q120 190 142 145T205 74T297 49Z" />
<glyph unicode="r" horiz-adv-x="361" d="M71 0V504H135L140 407V407Q156 442 183 466T248 503T334 516V443H307Q275 443 245 435T192 406T155 352T141 267V0H71Z" />
<glyph unicode="s" horiz-adv-x="495" d="M256 -12Q196 -12 151 8T78 65T44 155H117Q122 126 139 102T187 64T258 50Q296 50 320 61T357 91T370 135Q370 168 355 186T310 214T240 231Q206 237 176 247T121 273T82 313T67 371Q67 414 88 446T150 497T244 516Q321
516 370 478T427 365H357Q353 406 323 430T242 454Q192 454 166 434T139 378Q139 356 153 340T194 313T262 293Q310 284 350 270T416 226T442 142Q443 97 420 62T356 8T256 -12Z" />
<glyph unicode="t" horiz-adv-x="383" d="M262 0Q219 0 188 13T141 58T124 145V444H36V504H124L134 621H194V503H345V444H194V145Q194 95 214 78T285 60H337V0H262Z" />
<glyph unicode="u" horiz-adv-x="563" d="M253 -12Q196 -12 153 10T85 80T61 199V504H131V207Q131 127 166 88T265 49Q310 49 345 70T401 133T422 234V504H492V0H428L424 90V90Q400 42 355 15T253 -12Z" />
<glyph unicode="v" horiz-adv-x="518" d="M219 0L27 504H100L260 68V68L420 504H492L299 0H219Z" />
<glyph unicode="w" horiz-adv-x="748" d="M175 0L27 504H98L218 73H204L334 504H414L544 73H530L650 504H721L573 0H502L367 451H381L246 0H175Z" />
<glyph unicode="x" horiz-adv-x="477" d="M22 0L190 252L22 504H97L239 289V289L380 504H455L287 252L455 0H380L239 216V216L98 0H22Z" />
<glyph unicode="y" horiz-adv-x="544" d="M123 -220L247 56H220L21 504H97L269 104V104L450 504H522L196 -220H123Z" />
<glyph unicode="z" horiz-adv-x="451" d="M37 0V58L324 445H42V504H403V446L116 58H408V0H37Z" />
<glyph unicode="{" horiz-adv-x="416" d="M316 -145Q250 -145 210 -109T170 0Q170 34 175 61T186 118T192 187Q192 213 183 236T151 277T84 305V362Q128 371 151 389T183 430T192 480Q192 519 187 548T176 605T170 666Q170 740 210 775T316 811H367V750H328Q285
750 262 730T239 661Q239 630 244 604T254 548T260 477Q260 425 234 387T149 334V332Q208 319 234 281T260 189Q260 149 255 120T244 63T239 5Q239 -43 262 -63T328 -84H367V-145H316Z" />
<glyph unicode="|" horiz-adv-x="226" d="M78 -100V720H148V-100H78Z" />
<glyph unicode="}" horiz-adv-x="416" d="M101 -145H50V-84H89Q132 -84 155 -64T178 5Q178 36 173 63T162 119T156 189Q156 242 182 280T268 332V334Q209 348 183 386T156 477Q156 518 161 547T172 603T178 661Q178 709 155 729T89 750H50V811H101Q166 811 206
776T246 666Q246 632 241 605T230 549T224 480Q224 454 233 431T265 389T332 362V305Q289 296 266 278T233 237T224 187Q224 148 229 119T240 62T246 0Q246 -72 206 -108T101 -145Z" />
<glyph unicode="~" horiz-adv-x="500" d="M330 255Q304 255 283 265T243 289T205 313T164 324Q137 324 120 306T98 257H44Q52 300 68 329T109 372T168 387Q196 387 218 377T259 353T296 329T336 319Q363 319 380 337T400 385H455Q449 342 433 313T391 270T330 255Z" />
<glyph unicode="&#xa0;" horiz-adv-x="275" />
<glyph unicode="&#xa1;" horiz-adv-x="237" d="M89 320H148L157 -189H81L89 320ZM118 516Q140 516 154 501T169 464Q169 442 155 427T118 412Q97 412 83 427T68 464Q68 486 82 501T118 516Z" />
<glyph unicode="&#xa2;" horiz-adv-x="563" d="M259 -104V33H328V-104H259ZM259 472V609H328V472H259ZM293 -12Q224 -12 169 21T81 113T49 251Q49 332 81 390T168 482T293 516Q381 516 439 471T514 350H444Q433 400 392 427T293 455Q247 455 208 433T145 365T121
251Q121 200 135 162T173 99T228 60T293 47Q330 47 361 59T415 96T444 154H514Q499 81 440 35T293 -12Z" />
<glyph unicode="&#xa3;" horiz-adv-x="596" d="M91 0V47Q116 76 134 102T164 159T175 233Q175 269 166 300T144 363T122 429T112 509Q112 570 138 615T211 686T320 712Q389 712 435 685T506 611T534 510H469Q465 572 428 612T320 653Q284 653 251 638T198 591T178
506Q178 468 188 434T210 368T232 303T242 235Q242 183 223 141T166 59H534V0H91ZM47 314V364H405V314H47Z" />
<glyph unicode="&#xa4;" horiz-adv-x="527" d="M263 122Q214 122 176 143T116 204T94 297Q94 350 116 389T177 450T264 472Q311 472 350 451T411 390T434 297Q434 244 411 205T349 144T263 122ZM101 95L67 130L147 210L181 175L101 95ZM426 95L350 172L382 207L460
130L426 95ZM263 180Q288 180 311 192T349 229T365 297Q365 338 350 364T311 403T263 415Q238 415 215 403T178 365T163 297Q163 255 177 230T215 192T263 180ZM147 388L67 467L101 501L179 423L147 388ZM379 385L348 422L426 501L460 467L379 385Z" />
<glyph unicode="&#xa5;" horiz-adv-x="590" d="M61 175V228H531V175H61ZM270 325H61V377H259L270 325ZM330 325L341 377H531V325H330ZM261 0V273L35 700H114L308 314H284L476 700H554L331 273V0H261Z" />
<glyph unicode="&#xa6;" horiz-adv-x="226" d="M78 385V720H148V385H78ZM78 -100V235H148V-100H78Z" />
<glyph unicode="&#xa7;" horiz-adv-x="580" d="M287 -232Q222 -232 173 -207T98 -139T71 -40H143Q143 -71 159 -101T208 -152T291 -172Q353 -172 392 -140T431 -49Q431 -14 416 8T372 46T304 73T217 102Q167 119 129 143T68 204T46 299Q46 336 60 370T103 431Q90
450 83 472T76 522Q76 577 101 620T176 687T292 712Q358 712 406 687T481 619T508 520H436Q436 551 420 581T372 632T288 652Q227 652 188 620T148 530Q148 494 163 472T207 434T275 407T362 378Q412 361 450 337T511 276T533 181Q533 144 519 110T476 49Q490 30
496 8T503 -42Q504 -97 478 -140T404 -207T287 -232ZM428 94Q445 111 453 132T461 177Q461 221 443 248T392 291T320 320T235 348Q209 357 189 367T152 387Q135 370 127 349T118 303Q118 267 130 244T164 204T215 176T277 154T347 131Q371 123 391 114T428 94Z"
/>
<glyph unicode="&#xa8;" horiz-adv-x="298" d="M227 573Q207 573 194 586T180 619Q180 638 193 651T227 665Q245 665 258 652T271 619Q271 600 258 587T227 573ZM72 573Q53 573 40 586T26 619Q26 638 39 651T73 665Q91 665 104 652T118 619Q118 600 105 587T72 573Z" />
<glyph unicode="&#xa9;" horiz-adv-x="796" d="M398 -4Q296 -4 218 41T97 167T53 350Q53 454 96 533T218 658T398 703Q501 703 578 658T699 534T743 350Q743 247 700 167T579 42T398 -4ZM398 117Q339 117 290 144T212 224T182 351Q182 425 211 477T290 556T398
584Q472 584 527 545T602 433H537Q521 482 484 507T398 532Q357 532 322 512T266 451T245 350Q245 290 266 250T322 190T398 169Q448 169 484 194T537 267H602Q583 197 528 157T398 117ZM398 30Q493 30 562 71T669 184T707 350Q707 445 670 517T563 629T398 670Q303
670 234 630T127 517T89 350Q89 256 126 184T233 71T398 30Z" />
<glyph unicode="&#xaa;" horiz-adv-x="462" d="M215 347Q167 347 130 370T72 435T51 530Q51 583 71 623T129 687T213 710Q263 710 297 689T347 631L352 703H401V354H353L347 426V426Q333 392 299 370T215 347ZM226 392Q259 392 286 408T329 456T345 530Q345 594
311 629T226 665Q177 665 143 630T108 530Q108 466 142 429T226 392Z" />
<glyph unicode="&#xab;" horiz-adv-x="435" d="M314 120L215 295L314 470H385L283 295L385 120H314ZM144 120L45 295L144 470H215L113 295L215 120H144Z" />
<glyph unicode="&#xac;" horiz-adv-x="500" d="M462 230V373H-31V430H531V230H462Z" />
<glyph unicode="&#xae;" horiz-adv-x="502" d="M252 311Q194 311 150 337T80 408T54 511Q54 569 79 614T149 685T252 712Q310 712 354 686T423 614T449 511Q449 454 424 409T354 337T252 311ZM295 405L231 504H278L346 405H295ZM252 344Q301 344 337 365T393 425T413
511Q413 560 393 597T337 656T252 678Q203 678 167 657T110 598T90 511Q90 463 110 425T166 366T252 344ZM174 405V620H267Q300 620 319 603T339 555Q339 525 320 508T267 490H217V405H174ZM217 526H264Q278 526 287 532T296 554Q296 568 287 574T264 581H217V526Z"
/>
<glyph unicode="&#xaf;" horiz-adv-x="375" d="M18 596V650H357V596H18Z" />
<glyph unicode="&#xb0;" horiz-adv-x="337" d="M168 450Q133 450 104 466T58 511T40 580Q40 621 57 650T104 696T169 712Q204 712 233 696T279 651T297 580Q297 541 280 512T233 466T168 450ZM168 506Q194 506 216 525T238 581Q238 619 217 637T169 656Q144 656
122 638T99 581Q99 544 121 525T168 506Z" />
<glyph unicode="&#xb1;" horiz-adv-x="500" d="M15 0V54H484V0H15ZM218 116V466H282V116H218ZM15 261V321H484V261H15Z" />
<glyph unicode="&#xb2;" horiz-adv-x="322" d="M34 352V392L145 487Q174 512 194 538T215 601Q215 633 198 649T155 665Q127 665 111 649T90 602H33Q36 646 67 677T157 709Q193 709 219 695T260 657T275 603Q275 561 251 530T183 463L100 399H281V352H34Z" />
<glyph unicode="&#xb3;" horiz-adv-x="323" d="M157 347Q101 347 67 373T28 451H84Q87 429 97 416T122 397T157 391Q189 391 208 406T227 449Q227 478 207 493T154 508H106V547H154Q185 547 205 562T225 606Q225 632 207 648T157 664Q126 664 109 651T85 614H31Q35
642 51 663T95 696T161 709Q213 709 249 681T285 608Q285 577 268 557T221 528V526Q249 518 268 497T287 443Q287 405 253 376T157 347Z" />
<glyph unicode="&#xb4;" horiz-adv-x="205" d="M7 547L0 597L196 724V724L205 663L7 547Z" />
<glyph unicode="&#xb5;" horiz-adv-x="574" d="M71 -220V496H141V211Q141 129 176 89T275 49Q321 49 356 71T412 135T433 239V496H503V0H439L435 90V90Q411 42 365 15T263 -12Q227 -12 196 -3T141 25V-220H71Z" />
<glyph unicode="&#xb6;" horiz-adv-x="573" d="M283 -100V299H275Q194 299 142 325T65 397T39 499Q39 557 64 602T142 673T275 700H495V-100H432V644H345V-100H283Z" />
<glyph unicode="&#xb7;" horiz-adv-x="188" d="M94 295Q72 295 58 310T43 347Q43 369 57 383T94 398Q116 398 130 384T145 347Q145 325 131 310T94 295Z" />
<glyph unicode="&#xb8;" horiz-adv-x="217" d="M0 -258V-211H86Q124 -211 141 -198T158 -160Q158 -137 141 -125T86 -112H40V7H89V-67Q128 -66 157 -76T201 -108T217 -160Q217 -190 203 -212T162 -246T100 -258H0Z" />
<glyph unicode="&#xb9;" horiz-adv-x="195" d="M95 352V647L29 628V664L113 704H152V352H95Z" />
<glyph unicode="&#xba;" horiz-adv-x="451" d="M225 348Q174 348 134 371T72 435T49 530Q49 585 72 626T135 689T226 712Q277 712 317 690T379 626T402 530Q402 476 379 435T316 371T225 348ZM225 395Q258 395 284 410T327 456T344 530Q344 575 328 605T285 650T225
666Q193 666 166 651T123 605T107 530Q107 486 123 456T165 411T225 395Z" />
<glyph unicode="&#xbb;" horiz-adv-x="435" d="M121 120H50L152 295L50 470H121L220 295L121 120ZM291 120H220L322 295L220 470H291L390 295L291 120Z" />
<glyph unicode="&#xbc;" horiz-adv-x="667" d="M95 352V647L29 628V664L113 704H152V352H95ZM66 0L476 700H548L137 0H66ZM548 0V68H374V112L540 348H604V117H652V68H604V0H548ZM435 117H552V286V286L435 117Z" />
<glyph unicode="&#xbd;" horiz-adv-x="706" d="M95 352V647L29 628V664L113 704H152V352H95ZM66 0L476 700H548L137 0H66ZM418 0V40L529 135Q558 160 578 186T599 249Q599 281 582 297T539 313Q511 313 495 297T474 250H417Q420 294 451 325T541 357Q577 357 603
343T644 305T659 251Q659 209 635 178T567 111L484 47H665V0H418Z" />
<glyph unicode="&#xbe;" horiz-adv-x="775" d="M157 347Q101 347 67 373T28 451H84Q87 429 97 416T122 397T157 391Q189 391 208 406T227 449Q227 478 207 493T154 508H106V547H154Q185 547 205 562T225 606Q225 632 207 648T157 664Q126 664 109 651T85 614H31Q35
642 51 663T95 696T161 709Q213 709 249 681T285 608Q285 577 268 557T221 528V526Q249 518 268 497T287 443Q287 405 253 376T157 347ZM174 0L584 700H656L245 0H174ZM656 0V68H482V112L648 348H712V117H760V68H712V0H656ZM543 117H660V286V286L543 117Z" />
<glyph unicode="&#xbf;" horiz-adv-x="522" d="M358 316L362 162H336Q293 162 253 156T182 133T133 85T114 3Q114 -41 133 -73T187 -123T267 -141Q313 -141 346 -124T399 -76T418 -3H485Q485 -63 457 -107T379 -176T266 -201Q203 -201 154 -176T76 -105T47 3Q47
78 79 124T167 191T295 212L298 316H358ZM330 516Q351 516 365 501T380 464Q380 442 366 427T329 412Q308 412 294 427T279 464Q279 486 293 501T330 516Z" />
<glyph unicode="&#xc0;" horiz-adv-x="654" d="M33 0L291 700H363L621 0H547L327 608V608L107 0H33ZM151 189L172 247H481L502 189H151ZM424 743L225 860L235 921V921L430 794L424 743Z" />
<glyph unicode="&#xc1;" horiz-adv-x="654" d="M33 0L291 700H363L621 0H547L327 608V608L107 0H33ZM151 189L172 247H481L502 189H151ZM233 743L226 794L422 921V921L431 860L233 743Z" />
<glyph unicode="&#xc2;" horiz-adv-x="654" d="M33 0L291 700H363L621 0H547L327 608V608L107 0H33ZM151 189L172 247H481L502 189H151ZM194 758V815L328 897L462 815V758L328 842L194 758Z" />
<glyph unicode="&#xc3;" horiz-adv-x="654" d="M33 0L291 700H363L621 0H547L327 608V608L107 0H33ZM151 189L172 247H481L502 189H151ZM393 758Q367 758 350 770T317 793T281 805Q265 805 254 794T239 760H196Q202 806 225 829T284 853Q310 853 327 842T359 818T396
806Q413 806 425 817T440 851H482Q478 807 453 783T393 758Z" />
<glyph unicode="&#xc4;" horiz-adv-x="654" d="M33 0L291 700H363L621 0H547L327 608V608L107 0H33ZM151 189L172 247H481L502 189H151ZM252 777Q233 777 220 790T206 823Q206 842 219 855T252 869Q271 869 284 856T298 823Q298 804 285 791T252 777ZM406 777Q387
777 374 790T360 823Q360 842 373 855T406 869Q425 869 438 856T451 823Q451 804 438 791T406 777Z" />
<glyph unicode="&#xc5;" horiz-adv-x="654" d="M33 0L291 700H363L621 0H547L327 608V608L107 0H33ZM151 189L172 247H481L502 189H151ZM328 764Q287 764 257 791T226 864Q226 911 256 937T328 964Q371 964 400 938T430 864Q430 818 401 791T328 764ZM328 803Q353
803 370 819T387 864Q387 893 370 909T328 925Q304 925 287 909T270 864Q270 836 287 820T328 803Z" />
<glyph unicode="&#xc6;" horiz-adv-x="904" d="M33 0L439 700H845V644H550V380H815V324H550V56H845V0H480V640V640L110 0H33ZM167 166L196 222H512V166H167Z" />
<glyph unicode="&#xc7;" horiz-adv-x="713" d="M378 -12Q277 -12 203 33T89 160T49 350Q49 458 89 539T203 666T378 712Q496 712 569 657T664 500H587Q571 568 519 609T378 651Q301 651 243 615T153 512T121 350Q121 256 153 189T243 85T378 49Q467 49 519 90T587
198H664Q642 99 570 44T378 -12ZM296 -258V-211H382Q420 -211 437 -198T454 -160Q454 -137 437 -125T382 -112H336V7H385V-67Q424 -66 453 -76T497 -108T513 -160Q513 -190 499 -212T458 -246T396 -258H296Z" />
<glyph unicode="&#xc8;" horiz-adv-x="562" d="M78 0V700H503V642H148V381H473V323H148V58H503V0H78ZM386 743L187 860L197 921V921L392 794L386 743Z" />
<glyph unicode="&#xc9;" horiz-adv-x="562" d="M78 0V700H503V642H148V381H473V323H148V58H503V0H78ZM195 743L188 794L384 921V921L393 860L195 743Z" />
<glyph unicode="&#xca;" horiz-adv-x="562" d="M78 0V700H503V642H148V381H473V323H148V58H503V0H78ZM156 758V815L290 897L424 815V758L290 842L156 758Z" />
<glyph unicode="&#xcb;" horiz-adv-x="562" d="M78 0V700H503V642H148V381H473V323H148V58H503V0H78ZM214 777Q195 777 182 790T168 823Q168 842 181 855T214 869Q233 869 246 856T260 823Q260 804 247 791T214 777ZM368 777Q349 777 336 790T322 823Q322 842
335 855T368 869Q387 869 400 856T413 823Q413 804 400 791T368 777Z" />
<glyph unicode="&#xcc;" horiz-adv-x="226" d="M78 0V700H148V0H78ZM209 743L10 860L20 921V921L215 794L209 743Z" />
<glyph unicode="&#xcd;" horiz-adv-x="226" d="M78 0V700H148V0H78ZM18 743L11 794L207 921V921L216 860L18 743Z" />
<glyph unicode="&#xce;" horiz-adv-x="226" d="M78 0V700H148V0H78ZM235 758V815L369 897L503 815V758L369 842L235 758Z" />
<glyph unicode="&#xcf;" horiz-adv-x="226" d="M78 0V700H148V0H78ZM293 777Q274 777 261 790T247 823Q247 842 260 855T293 869Q312 869 325 856T339 823Q339 804 326 791T293 777ZM447 777Q428 777 415 790T401 823Q401 842 414 855T447 869Q466 869 479 856T492
823Q492 804 479 791T447 777Z" />
<glyph unicode="&#xd0;" horiz-adv-x="709" d="M9 316V381H379V316H9ZM102 0V700H300Q424 700 503 658T621 537T660 348Q660 240 622 162T504 42T300 0H102ZM172 58H300Q406 58 469 93T560 193T588 348Q588 439 560 505T469 606T300 642H172V58Z" />
<glyph unicode="&#xd1;" horiz-adv-x="683" d="M78 0V700H148L535 117V117V700H605V0H535L148 584V584V0H78ZM407 758Q381 758 364 770T331 793T295 805Q279 805 268 794T253 760H210Q216 806 239 829T298 853Q324 853 341 842T373 818T410 806Q427 806 439 817T454
851H496Q492 807 467 783T407 758Z" />
<glyph unicode="&#xd2;" horiz-adv-x="774" d="M386 -12Q286 -12 210 33T92 160T49 350Q49 457 91 538T210 666T386 712Q489 712 565 666T683 539T725 350Q725 242 683 161T565 34T386 -12ZM387 49Q466 49 526 85T619 188T653 350Q653 444 620 511T526 614T387
650Q308 650 248 614T155 511T121 350Q121 256 154 189T248 85T387 49ZM483 743L284 860L294 921V921L489 794L483 743Z" />
<glyph unicode="&#xd3;" horiz-adv-x="774" d="M386 -12Q286 -12 210 33T92 160T49 350Q49 457 91 538T210 666T386 712Q489 712 565 666T683 539T725 350Q725 242 683 161T565 34T386 -12ZM387 49Q466 49 526 85T619 188T653 350Q653 444 620 511T526 614T387
650Q308 650 248 614T155 511T121 350Q121 256 154 189T248 85T387 49ZM292 743L285 794L481 921V921L490 860L292 743Z" />
<glyph unicode="&#xd4;" horiz-adv-x="774" d="M386 -12Q286 -12 210 33T92 160T49 350Q49 457 91 538T210 666T386 712Q489 712 565 666T683 539T725 350Q725 242 683 161T565 34T386 -12ZM387 49Q466 49 526 85T619 188T653 350Q653 444 620 511T526 614T387
650Q308 650 248 614T155 511T121 350Q121 256 154 189T248 85T387 49ZM253 758V815L387 897L521 815V758L387 842L253 758Z" />
<glyph unicode="&#xd5;" horiz-adv-x="774" d="M386 -12Q286 -12 210 33T92 160T49 350Q49 457 91 538T210 666T386 712Q489 712 565 666T683 539T725 350Q725 242 683 161T565 34T386 -12ZM387 49Q466 49 526 85T619 188T653 350Q653 444 620 511T526 614T387
650Q308 650 248 614T155 511T121 350Q121 256 154 189T248 85T387 49ZM452 758Q426 758 409 770T376 793T340 805Q324 805 313 794T298 760H255Q261 806 284 829T343 853Q369 853 386 842T418 818T455 806Q472 806 484 817T499 851H541Q537 807 512 783T452 758Z"
/>
<glyph unicode="&#xd6;" horiz-adv-x="774" d="M386 -12Q286 -12 210 33T92 160T49 350Q49 457 91 538T210 666T386 712Q489 712 565 666T683 539T725 350Q725 242 683 161T565 34T386 -12ZM387 49Q466 49 526 85T619 188T653 350Q653 444 620 511T526 614T387
650Q308 650 248 614T155 511T121 350Q121 256 154 189T248 85T387 49ZM311 777Q292 777 279 790T265 823Q265 842 278 855T311 869Q330 869 343 856T357 823Q357 804 344 791T311 777ZM465 777Q446 777 433 790T419 823Q419 842 432 855T465 869Q484 869 497 856T510
823Q510 804 497 791T465 777Z" />
<glyph unicode="&#xd7;" horiz-adv-x="500" d="M112 111L70 153L207 291L76 422L119 464L250 333L387 471L429 429L292 291L423 160L380 118L249 249L112 111Z" />
<glyph unicode="&#xd8;" horiz-adv-x="777" d="M37 0L661 700H740L117 0H37ZM386 -12Q286 -12 210 33T92 160T49 350Q49 457 91 538T210 666T386 712Q489 712 565 666T683 539T725 350Q725 242 683 161T565 34T386 -12ZM387 49Q466 49 526 85T619 188T653 350Q653
444 620 511T526 614T387 650Q308 650 248 614T155 511T121 350Q121 256 154 189T248 85T387 49Z" />
<glyph unicode="&#xd9;" horiz-adv-x="648" d="M324 -12Q253 -12 196 16T104 103T70 255V700H140V254Q140 183 163 138T229 71T325 50Q380 50 421 71T485 137T508 254V700H578V255Q578 163 544 104T453 16T324 -12ZM419 743L220 860L230 921V921L425 794L419 743Z" />
<glyph unicode="&#xda;" horiz-adv-x="648" d="M324 -12Q253 -12 196 16T104 103T70 255V700H140V254Q140 183 163 138T229 71T325 50Q380 50 421 71T485 137T508 254V700H578V255Q578 163 544 104T453 16T324 -12ZM228 743L221 794L417 921V921L426 860L228 743Z" />
<glyph unicode="&#xdb;" horiz-adv-x="648" d="M324 -12Q253 -12 196 16T104 103T70 255V700H140V254Q140 183 163 138T229 71T325 50Q380 50 421 71T485 137T508 254V700H578V255Q578 163 544 104T453 16T324 -12ZM189 758V815L323 897L457 815V758L323 842L189 758Z" />
<glyph unicode="&#xdc;" horiz-adv-x="648" d="M324 -12Q253 -12 196 16T104 103T70 255V700H140V254Q140 183 163 138T229 71T325 50Q380 50 421 71T485 137T508 254V700H578V255Q578 163 544 104T453 16T324 -12ZM247 777Q228 777 215 790T201 823Q201 842 214
855T247 869Q266 869 279 856T293 823Q293 804 280 791T247 777ZM401 777Q382 777 369 790T355 823Q355 842 368 855T401 869Q420 869 433 856T446 823Q446 804 433 791T401 777Z" />
<glyph unicode="&#xdd;" horiz-adv-x="566" d="M249 0V273L23 700H102L296 314H272L465 700H543L319 273V0H249ZM189 743L182 794L378 921V921L387 860L189 743Z" />
<glyph unicode="&#xde;" horiz-adv-x="574" d="M78 0V700H148V551H299Q380 551 432 525T510 453T535 350Q535 294 510 249T433 177T299 150H148V0H78ZM148 210H299Q388 210 425 248T463 350Q463 418 426 455T299 492H148V210Z" />
<glyph unicode="&#xdf;" horiz-adv-x="647" d="M426 -10Q343 -10 291 37T230 167H300Q305 113 337 80T426 47Q477 47 505 72T534 142Q534 182 511 206T429 249Q351 275 318 303T285 376Q285 407 300 427T336 461T380 489T417 522T432 568Q432 616 395 644T293
673Q216 673 180 631T143 515V0H73V523Q73 583 97 630T171 705T294 732Q362 732 408 710T478 652T502 573Q502 536 488 513T451 473T407 445T371 419T356 385Q356 369 365 356T400 330T471 302Q543 279 574 241T606 147Q606 101 585 66T523 10T426 -10Z" />
<glyph unicode="&#xe0;" horiz-adv-x="531" d="M232 -12Q171 -12 131 10T71 67T51 144Q51 196 77 232T152 286T264 304H400Q400 353 385 387T342 438T269 456Q217 456 180 430T134 354H61Q67 407 97 443T173 497T269 516Q338 516 382 490T448 417T470 311V0H406L403
92V92Q393 71 378 52T342 19T294 -3T232 -12ZM240 50Q278 50 307 65T357 105T389 162T400 227V245H269Q216 245 184 232T138 197T124 146Q124 117 137 96T177 62T240 50ZM357 547L158 663L168 724V724L363 597L357 547Z" />
<glyph unicode="&#xe1;" horiz-adv-x="531" d="M232 -12Q171 -12 131 10T71 67T51 144Q51 196 77 232T152 286T264 304H400Q400 353 385 387T342 438T269 456Q217 456 180 430T134 354H61Q67 407 97 443T173 497T269 516Q338 516 382 490T448 417T470 311V0H406L403
92V92Q393 71 378 52T342 19T294 -3T232 -12ZM240 50Q278 50 307 65T357 105T389 162T400 227V245H269Q216 245 184 232T138 197T124 146Q124 117 137 96T177 62T240 50ZM165 547L158 597L354 724V724L363 663L165 547Z" />
<glyph unicode="&#xe2;" horiz-adv-x="531" d="M232 -12Q171 -12 131 10T71 67T51 144Q51 196 77 232T152 286T264 304H400Q400 353 385 387T342 438T269 456Q217 456 180 430T134 354H61Q67 407 97 443T173 497T269 516Q338 516 382 490T448 417T470 311V0H406L403
92V92Q393 71 378 52T342 19T294 -3T232 -12ZM240 50Q278 50 307 65T357 105T389 162T400 227V245H269Q216 245 184 232T138 197T124 146Q124 117 137 96T177 62T240 50ZM127 550V607L261 689L395 607V550L261 634L127 550Z" />
<glyph unicode="&#xe3;" horiz-adv-x="531" d="M232 -12Q171 -12 131 10T71 67T51 144Q51 196 77 232T152 286T264 304H400Q400 353 385 387T342 438T269 456Q217 456 180 430T134 354H61Q67 407 97 443T173 497T269 516Q338 516 382 490T448 417T470 311V0H406L403
92V92Q393 71 378 52T342 19T294 -3T232 -12ZM240 50Q278 50 307 65T357 105T389 162T400 227V245H269Q216 245 184 232T138 197T124 146Q124 117 137 96T177 62T240 50ZM315 570Q289 570 272 582T239 605T203 617Q187 617 176 606T161 572H118Q124 618 147 641T206
665Q232 665 249 654T281 630T318 618Q335 618 347 629T362 663H404Q400 619 375 595T315 570Z" />
<glyph unicode="&#xe4;" horiz-adv-x="531" d="M232 -12Q171 -12 131 10T71 67T51 144Q51 196 77 232T152 286T264 304H400Q400 353 385 387T342 438T269 456Q217 456 180 430T134 354H61Q67 407 97 443T173 497T269 516Q338 516 382 490T448 417T470 311V0H406L403
92V92Q393 71 378 52T342 19T294 -3T232 -12ZM240 50Q278 50 307 65T357 105T389 162T400 227V245H269Q216 245 184 232T138 197T124 146Q124 117 137 96T177 62T240 50ZM185 570Q166 570 153 583T139 616Q139 635 152 648T185 662Q204 662 217 648T231 616Q231
596 218 583T185 570ZM339 570Q320 570 307 583T293 616Q293 635 306 648T339 662Q358 662 371 648T384 616Q384 596 371 583T339 570Z" />
<glyph unicode="&#xe5;" horiz-adv-x="531" d="M232 -12Q171 -12 131 10T71 67T51 144Q51 196 77 232T152 286T264 304H400Q400 353 385 387T342 438T269 456Q217 456 180 430T134 354H61Q67 407 97 443T173 497T269 516Q338 516 382 490T448 417T470 311V0H406L403
92V92Q393 71 378 52T342 19T294 -3T232 -12ZM240 50Q278 50 307 65T357 105T389 162T400 227V245H269Q216 245 184 232T138 197T124 146Q124 117 137 96T177 62T240 50ZM261 570Q220 570 190 596T159 670Q159 717 189 743T261 770Q304 770 333 743T363 670Q363
624 334 597T261 570ZM261 608Q286 608 303 625T320 670Q320 699 303 715T261 731Q237 731 220 715T203 669Q203 642 220 625T261 608Z" />
<glyph unicode="&#xe6;" horiz-adv-x="904" d="M230 -12Q170 -12 130 10T71 67T51 144Q51 196 77 231T151 283T260 301H398Q398 352 384 386T340 438T269 456Q221 456 185 430T140 354H67Q73 407 103 443T177 497T269 516Q335 516 379 490T446 418Q478 465 527
490T636 516Q708 516 757 483T833 398T860 284Q860 274 860 264T859 239H468Q470 176 494 134T556 70T635 48Q695 48 731 77T784 156H852Q840 108 811 70T738 10T635 -12Q568 -12 514 21T431 113Q413 79 385 51T319 5T230 -12ZM236 50Q282 50 318 73T375 137T398
225V242H265Q214 242 183 230T138 197T124 146Q124 117 137 96T176 62T236 50ZM469 298H792Q789 374 744 415T635 456Q593 456 557 438T498 384T469 298Z" />
<glyph unicode="&#xe7;" horiz-adv-x="563" d="M293 -12Q224 -12 169 21T81 113T49 251Q49 332 81 390T168 482T293 516Q381 516 439 471T514 350H444Q433 400 392 427T293 455Q247 455 208 433T145 365T121 251Q121 200 135 162T173 99T228 60T293 47Q330 47
361 59T415 96T444 154H514Q499 81 440 35T293 -12ZM221 -258V-211H307Q345 -211 362 -198T379 -160Q379 -137 362 -125T307 -112H261V7H310V-67Q349 -66 378 -76T422 -108T438 -160Q438 -190 424 -212T383 -246T321 -258H221Z" />
<glyph unicode="&#xe8;" horiz-adv-x="560" d="M287 -12Q217 -12 164 21T80 113T49 253Q49 333 79 392T163 483T289 516Q362 516 413 483T490 397T517 281Q517 271 517 261T516 236H102V295H449Q446 372 401 414T286 456Q242 456 203 436T141 376T117 276V250Q117
182 141 137T205 70T287 48Q344 48 381 73T434 144H503Q491 100 462 65T389 9T287 -12ZM381 547L182 663L192 724V724L387 597L381 547Z" />
<glyph unicode="&#xe9;" horiz-adv-x="560" d="M287 -12Q217 -12 164 21T80 113T49 253Q49 333 79 392T163 483T289 516Q362 516 413 483T490 397T517 281Q517 271 517 261T516 236H102V295H449Q446 372 401 414T286 456Q242 456 203 436T141 376T117 276V250Q117
182 141 137T205 70T287 48Q344 48 381 73T434 144H503Q491 100 462 65T389 9T287 -12ZM189 547L182 597L378 724V724L387 663L189 547Z" />
<glyph unicode="&#xea;" horiz-adv-x="560" d="M287 -12Q217 -12 164 21T80 113T49 253Q49 333 79 392T163 483T289 516Q362 516 413 483T490 397T517 281Q517 271 517 261T516 236H102V295H449Q446 372 401 414T286 456Q242 456 203 436T141 376T117 276V250Q117
182 141 137T205 70T287 48Q344 48 381 73T434 144H503Q491 100 462 65T389 9T287 -12ZM151 550V607L285 689L419 607V550L285 634L151 550Z" />
<glyph unicode="&#xeb;" horiz-adv-x="560" d="M287 -12Q217 -12 164 21T80 113T49 253Q49 333 79 392T163 483T289 516Q362 516 413 483T490 397T517 281Q517 271 517 261T516 236H102V295H449Q446 372 401 414T286 456Q242 456 203 436T141 376T117 276V250Q117
182 141 137T205 70T287 48Q344 48 381 73T434 144H503Q491 100 462 65T389 9T287 -12ZM209 570Q190 570 177 583T163 616Q163 635 176 648T209 662Q228 662 241 648T255 616Q255 596 242 583T209 570ZM363 570Q344 570 331 583T317 616Q317 635 330 648T363 662Q382
662 395 648T408 616Q408 596 395 583T363 570Z" />
<glyph unicode="&#xec;" horiz-adv-x="212" d="M71 0V504H141V0H71ZM202 547L3 663L13 724V724L208 597L202 547Z" />
<glyph unicode="&#xed;" horiz-adv-x="212" d="M71 0V504H141V0H71ZM10 547L3 597L199 724V724L208 663L10 547Z" />
<glyph unicode="&#xee;" horiz-adv-x="212" d="M71 0V504H141V0H71ZM228 550V607L362 689L496 607V550L362 634L228 550Z" />
<glyph unicode="&#xef;" horiz-adv-x="212" d="M71 0V504H141V0H71ZM286 570Q267 570 254 583T240 616Q240 635 253 648T286 662Q305 662 318 648T332 616Q332 596 319 583T286 570ZM440 570Q421 570 408 583T394 616Q394 635 407 648T440 662Q459 662 472 648T485
616Q485 596 472 583T440 570Z" />
<glyph unicode="&#xf0;" horiz-adv-x="614" d="M305 -12Q231 -12 173 22T82 117T49 251Q49 328 82 387T172 479T302 513Q352 513 401 494T482 429Q469 466 451 500T407 568T350 635T277 700H349Q402 656 442 608T510 506T551 392T565 265Q565 184 531 121T439
23T305 -12ZM307 48Q356 48 398 72T467 142T494 253Q494 315 468 360T399 429T306 453Q257 453 215 429T146 360T120 253Q120 188 146 142T214 72T307 48ZM241 555V606L527 708V657L241 555Z" />
<glyph unicode="&#xf1;" horiz-adv-x="563" d="M71 0V504H135L139 414V414Q163 462 208 489T310 516Q368 516 411 493T478 424T502 305V0H432V297Q432 377 397 416T298 455Q253 455 218 434T162 371T141 270V0H71ZM352 570Q326 570 309 582T276 605T240 617Q224
617 213 606T198 572H155Q161 618 184 641T243 665Q269 665 286 654T318 630T355 618Q372 618 384 629T399 663H441Q437 619 412 595T352 570Z" />
<glyph unicode="&#xf2;" horiz-adv-x="590" d="M293 -12Q224 -12 169 20T81 112T49 251Q49 333 81 392T170 483T295 516Q367 516 422 484T509 392T541 251Q541 172 509 113T421 21T293 -12ZM294 48Q341 48 380 71T444 139T469 252Q469 320 445 365T382 432T295
455Q250 455 210 432T146 365T121 252Q121 185 145 140T208 71T294 48ZM392 547L193 663L203 724V724L398 597L392 547Z" />
<glyph unicode="&#xf3;" horiz-adv-x="590" d="M293 -12Q224 -12 169 20T81 112T49 251Q49 333 81 392T170 483T295 516Q367 516 422 484T509 392T541 251Q541 172 509 113T421 21T293 -12ZM294 48Q341 48 380 71T444 139T469 252Q469 320 445 365T382 432T295
455Q250 455 210 432T146 365T121 252Q121 185 145 140T208 71T294 48ZM200 547L193 597L389 724V724L398 663L200 547Z" />
<glyph unicode="&#xf4;" horiz-adv-x="590" d="M293 -12Q224 -12 169 20T81 112T49 251Q49 333 81 392T170 483T295 516Q367 516 422 484T509 392T541 251Q541 172 509 113T421 21T293 -12ZM294 48Q341 48 380 71T444 139T469 252Q469 320 445 365T382 432T295
455Q250 455 210 432T146 365T121 252Q121 185 145 140T208 71T294 48ZM162 550V607L296 689L430 607V550L296 634L162 550Z" />
<glyph unicode="&#xf5;" horiz-adv-x="590" d="M293 -12Q224 -12 169 20T81 112T49 251Q49 333 81 392T170 483T295 516Q367 516 422 484T509 392T541 251Q541 172 509 113T421 21T293 -12ZM294 48Q341 48 380 71T444 139T469 252Q469 320 445 365T382 432T295
455Q250 455 210 432T146 365T121 252Q121 185 145 140T208 71T294 48ZM350 570Q324 570 307 582T274 605T238 617Q222 617 211 606T196 572H153Q159 618 182 641T241 665Q267 665 284 654T316 630T353 618Q370 618 382 629T397 663H439Q435 619 410 595T350 570Z"
/>
<glyph unicode="&#xf6;" horiz-adv-x="590" d="M293 -12Q224 -12 169 20T81 112T49 251Q49 333 81 392T170 483T295 516Q367 516 422 484T509 392T541 251Q541 172 509 113T421 21T293 -12ZM294 48Q341 48 380 71T444 139T469 252Q469 320 445 365T382 432T295
455Q250 455 210 432T146 365T121 252Q121 185 145 140T208 71T294 48ZM220 570Q201 570 188 583T174 616Q174 635 187 648T220 662Q239 662 252 648T266 616Q266 596 253 583T220 570ZM374 570Q355 570 342 583T328 616Q328 635 341 648T374 662Q393 662 406 648T419
616Q419 596 406 583T374 570Z" />
<glyph unicode="&#xf7;" horiz-adv-x="500" d="M55 261V321H444V261H55ZM250 105Q228 105 214 120T200 157Q200 179 214 193T250 208Q272 208 286 194T301 157Q301 135 287 120T250 105ZM250 374Q228 374 214 389T200 426Q200 448 214 462T250 477Q272 477 286
463T301 426Q301 404 287 389T250 374Z" />
<glyph unicode="&#xf8;" horiz-adv-x="597" d="M43 0L482 504H554L116 0H43ZM297 -12Q228 -12 173 20T85 112T53 251Q53 333 85 392T174 483T299 516Q370 516 425 484T512 392T545 251Q545 172 512 113T424 21T297 -12ZM298 48Q344 48 383 71T448 139T473 252Q473
320 449 365T385 432T299 455Q253 455 214 432T150 365T125 252Q125 185 149 140T212 71T298 48Z" />
<glyph unicode="&#xf9;" horiz-adv-x="563" d="M253 -12Q196 -12 153 10T85 80T61 199V504H131V207Q131 127 166 88T265 49Q310 49 345 70T401 133T422 234V504H492V0H428L424 90V90Q400 42 355 15T253 -12ZM370 547L171 663L181 724V724L376 597L370 547Z" />
<glyph unicode="&#xfa;" horiz-adv-x="563" d="M253 -12Q196 -12 153 10T85 80T61 199V504H131V207Q131 127 166 88T265 49Q310 49 345 70T401 133T422 234V504H492V0H428L424 90V90Q400 42 355 15T253 -12ZM178 547L171 597L367 724V724L376 663L178 547Z" />
<glyph unicode="&#xfb;" horiz-adv-x="563" d="M253 -12Q196 -12 153 10T85 80T61 199V504H131V207Q131 127 166 88T265 49Q310 49 345 70T401 133T422 234V504H492V0H428L424 90V90Q400 42 355 15T253 -12ZM140 550V607L274 689L408 607V550L274 634L140 550Z" />
<glyph unicode="&#xfc;" horiz-adv-x="563" d="M253 -12Q196 -12 153 10T85 80T61 199V504H131V207Q131 127 166 88T265 49Q310 49 345 70T401 133T422 234V504H492V0H428L424 90V90Q400 42 355 15T253 -12ZM198 570Q179 570 166 583T152 616Q152 635 165 648T198
662Q217 662 230 648T244 616Q244 596 231 583T198 570ZM352 570Q333 570 320 583T306 616Q306 635 319 648T352 662Q371 662 384 648T397 616Q397 596 384 583T352 570Z" />
<glyph unicode="&#xfd;" horiz-adv-x="544" d="M123 -220L247 56H220L21 504H97L269 104V104L450 504H522L196 -220H123ZM176 547L169 597L365 724V724L374 663L176 547Z" />
<glyph unicode="&#xfe;" horiz-adv-x="620" d="M71 -220V720H141V413Q157 440 183 463T245 501T329 516Q402 516 457 482T541 387T571 251Q571 175 541 116T457 22T328 -12Q264 -12 216 15T141 93V-220H71ZM323 49Q375 49 415 74T477 145T500 252Q500 313 478
359T415 430T323 455Q271 455 231 430T168 360T145 252Q145 191 168 146T231 75T323 49Z" />
<glyph unicode="&#xff;" horiz-adv-x="544" d="M123 -220L247 56H220L21 504H97L269 104V104L450 504H522L196 -220H123ZM196 570Q177 570 164 583T150 616Q150 635 163 648T196 662Q215 662 228 648T242 616Q242 596 229 583T196 570ZM350 570Q331 570 318 583T304
616Q304 635 317 648T350 662Q369 662 382 648T395 616Q395 596 382 583T350 570Z" />
<glyph unicode="&#x2013;" horiz-adv-x="619" d="M50 266V325H569V266H50Z" />
<glyph unicode="&#x2014;" horiz-adv-x="819" d="M50 266V325H769V266H50Z" />
<glyph unicode="&#x2018;" horiz-adv-x="198" d="M30 477L117 700H168L111 477H30Z" />
<glyph unicode="&#x2019;" horiz-adv-x="198" d="M168 700L81 477H30L87 700H168Z" />
<glyph unicode="&#x201a;" horiz-adv-x="172" d="M1 -124L59 96H140L52 -124H1Z" />
<glyph unicode="&#x201c;" horiz-adv-x="344" d="M175 477L263 700H314L256 477H175ZM30 477L117 700H168L111 477H30Z" />
<glyph unicode="&#x201d;" horiz-adv-x="344" d="M169 700L81 477H30L88 700H169ZM314 700L227 477H176L233 700H314Z" />
<glyph unicode="&#x201e;" horiz-adv-x="322" d="M1 -124L59 96H140L52 -124H1ZM151 -124L208 96H289L203 -124H151Z" />
<glyph unicode="&#x2022;" horiz-adv-x="355" d="M176 218Q146 218 120 233T78 275T62 333Q62 366 78 392T120 433T176 449Q210 449 236 434T277 392T293 333Q293 301 278 275T236 234T176 218Z" />
<glyph unicode="&#x2039;" horiz-adv-x="269" d="M146 120L47 295L146 470H217L115 295L217 120H146Z" />
<glyph unicode="&#x203a;" horiz-adv-x="269" d="M123 120H52L154 295L52 470H123L222 295L123 120Z" />
</font>
</defs>
</svg>
